Coordinates
version=1
nRows=17
nColumns=40
inDegrees=yes

Units are S.I. units (second, meters, Newtons, ...)
If the header above contains a line with 'inDegrees', this indicates whether rotational values are in degrees (yes) or radians (no).

endheader
time	pelvis_tilt	pelvis_list	pelvis_rotation	pelvis_tx	pelvis_ty	pelvis_tz	hip_flexion_r	hip_adduction_r	hip_rotation_r	knee_angle_r	ankle_angle_r	subtalar_angle_r	mtp_angle_r	hip_flexion_l	hip_adduction_l	hip_rotation_l	knee_angle_l	ankle_angle_l	subtalar_angle_l	mtp_angle_l	lumbar_extension	lumbar_bending	lumbar_rotation	sh_tx_r	sh_ty_r	sh_tz_r	sh_plane_elev_r	sh_elev_r	sh_axial_rot_r	elbow_flex_r	pro_sup_r	sh_tx_l	sh_ty_l	sh_tz_l	sh_plane_elev_l	sh_elev_l	sh_axial_rot_l	elbow_flex_l	pro_sup_l
      0.00000000	    -30.09731668	     -9.33866707	     72.65421107	      0.41179837	      0.86326736	      0.88500078	     17.63438371	     14.10999137	     28.39150425	      4.05828861	    -13.07889093	     -0.87880408	      0.00000000	     50.29406531	     30.00000025	    -22.84551869	     42.57412842	     14.73040739	    -35.00000000	      0.00000000	      3.12125932	    -15.91638371	     13.58483934	     -0.00260350	      0.03099180	     -0.00673332	     -9.68808715	     10.25980883	      9.36056794	     22.43770268	     79.10255360	     -0.01204216	      0.03773433	     -0.01000000	     72.62712582	     29.70288756	    -24.07354544	     26.07585581	     56.62358039
      0.01666670	    -35.60850272	     -8.52428895	     65.47798712	      0.41318291	      0.84831662	      0.87238931	     17.08220721	     11.49478218	     31.24214458	      4.26214893	    -11.60177995	     -2.34501559	      0.00000000	     57.43198897	     30.00000025	    -32.55956509	     42.64681212	     18.18775157	    -35.00000000	      0.00000000	      5.84694633	    -20.11567822	     17.89291631	     -0.00169157	      0.04411390	     -0.00708171	    -10.33091707	      8.91480263	      8.55811538	     21.67030797	     79.56582034	     -0.02278203	      0.05121741	     -0.01000000	     70.24422873	     29.88042100	    -26.55472442	     26.08186196	     54.83729971
      0.03333330	    -26.28460266	    -10.04293620	     75.09234936	      0.40090146	      0.86693926	      0.85325846	     21.11786043	     15.46554400	     17.27908906	      3.87172886	    -11.07566233	     -6.07954232	      0.00000000	     48.54751824	     30.00000025	    -21.68256354	     40.90964364	     19.24626817	    -35.00000000	      0.00000000	      1.19298808	     -9.93990908	     10.34125049	     -0.00343277	      0.03887183	     -0.00087037	    -14.20023878	      9.07586546	      7.43985917	     19.58041450	     80.63961157	     -0.01930640	      0.03087887	     -0.01000000	     74.33493775	     30.35967922	    -28.46094896	     27.04219689	     52.27023910
      0.05000000	    -16.02754499	     -6.75434850	     90.78349505	      0.38768533	      0.90334131	      0.83351522	     25.39613230	     14.47245332	     -4.38448160	      2.97810470	     -7.81397083	     -7.35784611	      0.00000000	     31.05579069	     30.00000025	     -7.68311821	     35.61033466	     27.86104378	    -18.67578172	      0.00000000	     -5.66055117	      1.29864768	     -1.45706403	     -0.00375632	      0.02181409	      0.00000000	    -18.00313583	      9.67732939	      7.08559357	     19.87572043	     81.94123535	     -0.01106049	      0.00721631	     -0.01000000	     80.04805548	     32.01009711	    -30.56888028	     26.81931316	     49.74520061
      0.06666670	    -14.33085101	     -5.53841508	     96.16894157	      0.38105192	      0.92048029	      0.82382886	     30.71670083	      8.10501247	    -12.61443833	      5.42116813	     -8.16989220	    -14.25441574	      0.00000000	     24.33437190	     30.00000025	     -3.37084007	     33.00758744	     30.12323402	    -11.46114579	      0.00000000	     -7.04493990	      3.55877710	     -6.08457874	     -0.00149297	      0.00672671	      0.00000000	    -19.46122209	      9.20166119	      7.07690781	     20.10275454	     83.48603539	     -0.00647686	     -0.00543602	     -0.01000000	     82.07611223	     33.33323262	    -31.86310064	     25.88837030	     47.44917394
      0.08333330	    -16.54284001	     -5.36063465	     98.88479520	      0.37341797	      0.92725384	      0.81623270	     33.91822352	      0.86731592	    -16.28337071	      9.85210381	     -8.84307250	    -19.02764796	      0.00000000	     17.73380480	     30.00000025	      3.02624006	     33.02930541	     24.62770607	    -19.40896137	      0.00000000	     -6.83194526	      0.87435931	    -10.57768775	      0.00529878	     -0.00311356	      0.00000000	    -20.90196525	      7.92199389	      7.20165413	     19.55280303	     95.04933932	     -0.00648879	     -0.01051653	     -0.01000000	     80.32279963	     33.98929202	    -30.08048773	     25.67810466	     33.78271058
      0.10000000	    -21.88450519	     -6.23563715	     99.68776995	      0.36825696	      0.92760644	      0.80585340	     36.86504389	     -6.41026395	    -15.44011812	     16.37652217	     -9.32752737	    -24.98732483	      0.00000000	      8.90958791	     30.00000025	     11.39739826	     29.47882281	     11.76693507	    -35.00000000	      0.00000000	     -6.17920196	     -5.60429246	    -11.68816065	      0.00062118	     -0.00505136	      0.00000000	    -21.79059032	      5.95892184	      6.62131391	     16.85718384	     95.27426212	     -0.00079359	     -0.00578462	     -0.01000000	     79.40167365	     33.90885682	    -29.50395373	     25.65269572	     33.44196084
      0.11666670	    -19.79118766	     -5.88209909	    100.68365615	      0.36476256	      0.92576198	      0.78741856	     36.38902420	     -4.79238251	    -18.05868755	     19.14445693	     -9.48391403	    -27.11986119	      0.00000000	      1.77392619	     20.94114468	     12.07116870	     26.58522069	      7.06403363	    -35.00000000	      0.00000000	     -5.29868049	     -2.87899150	    -12.32276144	     -0.00081500	     -0.00038135	      0.00000000	    -21.88202913	      6.09048844	      6.65529683	     15.81514500	     95.49325822	      0.00106145	     -0.00434630	     -0.01000000	     79.97676879	     33.44270313	    -29.36381356	     26.22409400	     33.21156624
      0.13333330	    -16.88607322	     -5.33134456	    101.21515177	      0.36043553	      0.92519236	      0.76617390	     35.12781414	     -1.65494098	    -20.01206771	     20.26213990	     -9.73278104	    -28.44855571	      0.00000000	     -1.89920420	     13.99656473	     10.23558673	     24.77528819	      3.37813297	    -34.44232784	      0.00000000	     -4.99310818	      1.00902510	    -12.92688397	     -0.00034024	      0.00410359	      0.00000000	    -21.80874397	      6.59767237	      6.63871280	     15.52645644	     95.99202224	     -0.00049639	     -0.00284034	     -0.01000000	     81.03170223	     33.05219952	    -30.47794097	     27.29546545	     32.45732346
      0.15000000	    -15.00375419	     -5.50918787	    101.24411785	      0.35612923	      0.92473368	      0.74576393	     34.61321368	      0.35005389	    -21.45833616	     21.20795853	     -8.56379528	    -28.27475075	      0.00000000	     -1.70458011	     10.74177948	      7.91560124	     26.33024276	      2.40135649	    -31.78517585	      0.00000000	     -4.20321792	      3.56418315	    -13.01551693	     -0.00161104	      0.00589026	      0.00000000	    -21.59536895	      7.08805024	      6.54083843	     15.45585293	     96.50989800	     -0.00045946	     -0.00205028	     -0.01000000	     82.08370961	     32.26475605	    -32.13720947	     28.38318121	     31.73990637
      0.16666670	    -13.95385012	     -5.58031361	    100.52578540	      0.35483121	      0.92530045	      0.72628545	     33.65820207	      1.87289592	    -22.39229881	     21.66448482	     -6.90029742	    -27.58055937	      0.00000000	     -0.01962364	      9.28126719	      5.39460352	     30.19360762	      0.71295792	    -29.66818640	      0.00000000	     -3.92741810	      4.83620936	    -12.59907160	     -0.00297577	      0.00507421	      0.00000000	    -21.23870609	      7.25543674	      6.44750062	     15.45906232	     96.90640727	     -0.00074443	     -0.00095514	     -0.01000000	     82.56005803	     31.47927292	    -33.23289384	     29.28662123	     31.43922447
      0.18333330	    -13.29273658	     -5.40321983	     99.32240197	      0.35777957	      0.92984163	      0.70694740	     32.00559660	      3.51151316	    -23.02309467	     21.33568402	     -5.01755177	    -26.44028287	      0.00000000	      2.27916111	      8.07661521	      2.54261501	     35.44799969	     -2.19815632	    -27.02252173	      0.00000000	     -3.99984279	      5.58248725	    -11.85456733	     -0.00425216	      0.00424185	      0.00000000	    -20.67741862	      7.07412828	      6.28181174	     15.42634179	     97.24273719	      0.00042603	      0.00014533	     -0.01000000	     82.62884003	     30.48596498	    -33.90363342	     30.17381641	     31.47201654
      0.20000000	    -12.89867340	     -5.13367560	     97.64843286	      0.36503361	      0.93480256	      0.68715927	     29.83095580	      5.48431610	    -22.96139549	     20.18928793	     -3.42605359	    -25.21230485	      0.00000000	      4.84469026	      6.49176761	     -0.62294865	     41.33631493	     -5.19289849	    -22.80773667	      0.00000000	     -4.27040951	      6.00041430	    -10.77187474	     -0.00608520	      0.00308092	      0.00000000	    -19.92062897	      6.63495552	      5.86770744	     15.44447350	     97.55093551	      0.00281083	      0.00139896	     -0.01000000	     81.95246643	     29.10259512	    -34.15463125	     31.33567854	     31.91215733
      0.21666670	    -12.68733620	     -4.89686294	     95.41760837	      0.37119883	      0.94007955	      0.66705991	     27.30085113	      7.61639400	    -21.88538759	     18.31168429	     -2.45601170	    -24.27169543	      0.00000000	      7.30673757	      4.57713194	     -3.69126128	     46.90563653	     -7.31926308	    -18.27241867	      0.00000000	     -4.50621607	      6.36067635	     -9.44273561	     -0.00769478	      0.00265179	      0.00000000	    -19.26743764	      6.26530647	      5.50550996	     15.83923494	     97.73714767	      0.00625562	      0.00314939	     -0.01000000	     80.68087546	     27.24272347	    -34.04815371	     31.74630922	     32.40012248
      0.23333330	    -12.71972902	     -4.89041448	     93.24501164	      0.37143447	      0.94423849	      0.64678219	     24.80792986	      9.11698202	    -20.57073926	     16.16736834	     -1.77229853	    -23.60103501	      0.00000000	      9.50431659	      2.86258974	     -5.84080244	     51.21187519	     -9.51691758	    -15.84747568	      0.00000000	     -4.37455515	      6.47310498	     -8.63593570	     -0.00825685	      0.00134900	      0.00000000	    -18.98669308	      5.84432237	      5.36086275	     16.29641383	     97.79141708	      0.00555036	      0.00219464	     -0.01000000	     80.01778321	     26.02930382	    -33.99620067	     31.45958611	     32.54940230
      0.25000000	    -12.81531289	     -5.06084861	     90.02262255	      0.37137396	      0.94299430	      0.62663302	     22.61039867	     10.51196909	    -18.32499897	     14.54426021	     -0.66975019	    -21.88018012	      0.00000000	     11.22597685	      0.73969637	     -8.81646350	     54.46451519	     -6.80019635	    -11.08975780	      0.00000000	     -1.43244207	      6.40893822	    -24.93322733	      0.04465750	      0.00076554	     -0.01000000	      8.60358324	      7.06449054	     -0.21290475	     13.41406515	    105.68247236	      0.02031355	      0.00335599	     -0.01000000	      9.60171431	      6.77862484	    -12.04063927	     50.06101254	     71.76401734
      0.26666670	    -13.09297865	     -5.89148397	     86.93978347	      0.37627392	      0.94093618	      0.60954066	     21.53891080	     11.50290106	    -15.71997814	     13.50738787	      0.22540061	    -21.05061060	      0.00000000	     13.55704317	     -1.11987634	    -10.68284981	     56.65829587	     -5.11895431	    -11.33866659	      0.00000000	      0.15870351	      6.19986403	    -19.17628817	      0.03283010	     -0.00091739	     -0.01000000	      4.80242336	      7.15024627	     -2.60503329	     12.87152394	    102.45201530	      0.03207520	      0.00072713	     -0.00877477	      7.47741339	      4.84512720	     -6.53645238	     47.92208973	     73.24985084
